<svg xmlns="http://www.w3.org/2000/svg" viewBox="0 0 360 172.16" [ngStyle]="{height: height, width: width, color: color || 'inherit'}">
  <g>
    <g>
      <path fill="currentColor" d="M173.32,112.05H95.19V98.68h63.59V84.14H95.19V72.51h58V0H21.91V72.51H77.55V84.14H17.25V98.68h60.3v13.37H1.16v15.51H173.32ZM95.19,14.15h39.94V29.47H95.19Zm0,28.69h39.94V58.55H95.19ZM77.55,58.55H39.16V42.84H77.55Zm0-29.08H39.16V14.15H77.55Z" />
      <path fill="currentColor" d="M132.61,138c8.91,10.47,19.38,24.82,23.84,33.74l18-6.6c-5.23-9.3-16.09-23.06-25.2-32.95Z" />
      <path fill="currentColor" d="M0,164.4l16.67,7.76c9.89-8.54,17.84-22.3,22.49-35.68l-17.25-4.26C17.25,144.82,9.11,157.61,0,164.4Z" />
      <path fill="currentColor" d="M94,139c4.07,10.08,8.14,23.27,9.69,31.41l17.64-4.07c-1.55-8-6.2-21.13-10.66-30.63Z" />
      <path fill="currentColor" d="M55.64,138.42a179.33,179.33,0,0,1,2.91,31.8l17.64-1.94c0-8.15-1.74-21.13-3.88-31.22Z" />
      <path fill="currentColor" d="M325.69,24.82l-19.2,6.39c19.39,22.88,30.44,64.17,33.54,97.13l20-7.75C357.48,89.37,343.33,47.11,325.69,24.82Z" />
      <path fill="currentColor" d="M250.27,134.35c-12.79,0-20.55-20.16-23.46-50.41a426.62,426.62,0,0,1-1.35-43.23A157.37,157.37,0,0,1,227.39,20l-23.45-.39c1.16,5.24,1.35,13.18,1.35,18,0,11.63.2,34.51,2.14,51.37,5.23,50.61,23.07,69.22,42.45,69.22,14.16,0,26-11.44,38.19-44.4l-15.5-18C268.3,113.41,260,134.35,250.27,134.35Z" />
    </g>
  </g>
</svg>